Simulation
nRows=48
nColumns=15
endheader
time  TH_x TH_y TH_z SC_y  SC_z  SC_x  AC_y  AC_z  AC_x  GH_y  GH_z  GH_yy  EL_x  PS_y
5.745  0.000000  0.000000  0.000000  -54.06199198469739  16.007643582018147  27.97810413666128  54.98593304434331  14.812497667895117  19.75311689686067  19.94659455729561  40.77085234871803  -32.41086841854123  18.577147458084013  120.000000
5.80245  0.000000  0.000000  0.000000  -52.09517051000198  15.545754489377577  25.084120073880868  54.91690862780578  14.75626421594616  18.458254085566423  19.95863204694974  39.94552079529824  -32.971891205227145  18.870698642101566  120.000000
5.8599  0.000000  0.000000  0.000000  -49.81875467606553  14.829251557999797  21.477202320741515  54.765510728083974  14.711435510137715  17.080667624305228  19.959732369909972  38.84116422870377  -33.36325402772361  19.265189309517016  120.000000
5.91735  0.000000  0.000000  0.000000  -47.3794257156893  13.776239461210684  17.30380940145265  54.501111104285535  14.663199144417202  15.706941467285334  19.91003383889335  37.50307534917901  -33.46629982634385  19.670391087940157  120.000000
5.9748  0.000000  0.000000  0.000000  -44.9444881215516  12.346660483955398  12.75154399665066  54.092472207673566  14.608677090531486  14.427188809241253  19.78229774911065  35.98002323997877  -33.175040321349115  19.9764221495262  120.000000
6.03225  0.000000  0.000000  0.000000  -42.676919135435064  10.5644102652859  8.027521918160518  53.52278401078827  14.556002782821375  13.325080879243858  19.57569465150969  34.321839182376316  -32.42969418208761  20.088654850361394  120.000000
6.089700000000001  0.000000  0.000000  0.000000  -40.708733856092934  8.518992154877381  3.3344013003429915  52.80014810298791  14.521783048781563  12.46571130437483  19.325034216020374  32.57786944947429  -31.241047953716187  19.956626267145683  120.000000
6.14715  0.000000  0.000000  0.000000  -39.12340794197879  6.3483391685609645  -1.1497219412744837  51.96010590305714  14.526410222795795  11.884251233157475  19.10172657228438  30.79393868715665  -29.698074590339022  19.58141257030329  120.000000
6.2046  0.000000  0.000000  0.000000  -37.95115090805682  4.2100832152764225  -5.281694913099479  51.06081876214141  14.590394725726181  11.579765764493574  19.007203944850414  29.005547008507435  -27.957986887722388  19.001501232201598  120.000000
6.26205  0.000000  0.000000  0.000000  -37.172444315758696  2.25156505783672  -8.955590514336619  50.17200251672898  14.729090083009318  11.519611351564993  19.161872701150802  27.228583893494406  -26.221149185171203  18.275740281399727  120.000000
6.3195  0.000000  0.000000  0.000000  -36.726078203415675  0.5866972833383656  -12.099689194729146  49.36150569833959  14.948282023098152  11.650714133555798  19.687542742149173  25.4558296907317  -24.693970785673333  17.476098380945746  120.000000
6.37695  0.000000  0.000000  0.000000  -36.52237201886705  -0.714564852699808  -14.671635154290588  48.682405617837645  15.241446728647514  11.912600469228135  20.684916586281926  23.6640809397581  -23.549393846426476  16.68445592745595  120.000000
6.4344  0.000000  0.000000  0.000000  -36.460387207242825  -1.6286996939954335  -16.657415908000946  48.171977336981904  15.590179940443731  12.24384818610971  22.22584098071647  21.83448940575977  -22.910574020694654  15.987084753433614  120.000000
6.49185  0.000000  0.000000  0.000000  -36.450782829580156  -2.177544642774779  -18.067382376541378  47.84362109516678  15.964068001790105  12.595451942888428  24.352070727893274  19.970803715430353  -22.853448603223985  15.460964533928296  120.000000
6.549300000000001  0.000000  0.000000  0.000000  -36.4477427919816  -2.4192275304539455  -18.935783275236105  47.67412496315699  16.32185087464227  12.937391121943598  27.053971362167847  18.10519020918779  -23.398868799166493  15.156009543976753  120.000000
6.60675  0.000000  0.000000  0.000000  -36.449782016860695  -2.4180041996920587  -19.324973712324  47.629100808085674  16.625727995903368  13.236721214943094  30.267966380639955  16.299754327010945  -24.52224660771166  15.086262946540796  120.000000
6.6642  0.000000  0.000000  0.000000  -36.473668159462775  -2.227827596311198  -19.319262419749847  47.68799960013123  16.848455219747656  13.448226347535979  33.8925334059725  14.625650518430623  -26.169074682466285  15.235593815203735  120.000000
6.72165  0.000000  0.000000  0.000000  -36.544256327492036  -1.917943645870993  -19.01004203010967  47.826686672136965  16.96499743273742  13.537533774320167  37.7757604357241  13.123377404178921  -28.232990311591244  15.564570748324316  120.000000
6.7791  0.000000  0.000000  0.000000  -36.671571454975506  -1.564020474239713  -18.47792408401617  48.01240963077247  16.956996984564505  13.497401981890143  41.739004806655394  11.793375420074842  -30.56816508182105  16.013819341253868  120.000000
6.83655  0.000000  0.000000  0.000000  -36.84117960332742  -1.2218786451638526  -17.78653045073144  48.22151952484405  16.822534622134754  13.336755758927167  45.62024724102275  10.617269426942123  -33.024901973612934  16.507864405155065  120.000000
6.894  0.000000  0.000000  0.000000  -37.02472605212319  -0.9236304627047065  -16.98803671951808  48.442550510195055  16.57142959974183  13.070879175416351  49.295800336127165  9.56945869465965  -35.47405724615449  16.960826086936112  120.000000
6.95145  0.000000  0.000000  0.000000  -37.19160646300103  -0.681564209115022  -16.12522098496749  48.671014723356755  16.219899022947427  12.718860435680941  52.69070067673689  8.625338540361872  -37.82689675062223  17.29326257463637  120.000000
7.008900000000001  0.000000  0.000000  0.000000  -37.32156370687916  -0.4955485633524347  -15.231502655675172  48.90300554296518  15.78809991937752  12.30184469970985  55.76980093561204  7.768308262273766  -40.036783436356956  17.458828409795938  120.000000
7.06635  0.000000  0.000000  0.000000  -37.41035715981002  -0.35861554514034244  -14.33174383982647  49.131152815535906  15.297783068845385  11.841352228723567  58.5196638205194  6.990895574029744  -42.08715652021782  17.466138978289923  120.000000
7.1238  0.000000  0.000000  0.000000  -37.47037110323694  -0.2623252448929879  -13.442957383214603  49.34317456500834  14.771181247162342  11.356949882344448  60.91724998342772  6.293491133462128  -43.961185105552254  17.375912669746715  120.000000
7.18125  0.000000  0.000000  0.000000  -37.52010165765806  -0.19692003479081496  -12.576416302384713  49.52896015161906  14.23005753248899  10.863127731636057  62.92059905177978  5.681404010995753  -45.62554994539196  17.273673912030517  120.000000
7.2387  0.000000  0.000000  0.000000  -37.574035206141005  -0.15221500301466528  -11.740047174092776  49.6872524152419  13.694255120515201  10.368580869289232  64.47234189588468  5.161622429131348  -47.024458017950344  17.23480311808301  120.000000
7.29615  0.000000  0.000000  0.000000  -37.63878904466622  -0.1204457348719079  -10.939469260648188  49.82087943414192  13.178368623408359  9.881336268013934  65.49776472753015  4.734129858800439  -48.06895967250415  17.29653472331623  120.000000
7.3536  0.000000  0.000000  0.000000  -37.7106187216621  -0.09635855718972397  -10.178950244283294  49.93202619283916  12.690190985751073  9.411724185806316  65.9222311520554  4.38630670534357  -48.65194336821318  17.4518131688965  120.000000
7.41105  0.000000  0.000000  0.000000  -37.78044220661897  -0.07644655547078474  -9.462553855898982  50.02526779582535  12.233594440069767  8.969094969821677  65.68970661369134  4.099771009777165  -48.67466829557029  17.66635962832719  120.000000
7.468500000000001  0.000000  0.000000  0.000000  -37.83608258728994  -0.057276869654541436  -8.794841098642731  50.10875555597327  11.810700947240841  8.559367845548623  64.78012326107036  3.856588691176584  -48.074581514125136  17.902037420739052  120.000000
7.52595  0.000000  0.000000  0.000000  -37.8698179450319  -0.03645793669510903  -8.180406003266134  50.18805766513613  11.421780825393473  8.186669769816426  63.206499987123976  3.6415304467874545  -46.83125440453748  18.13272953945175  120.000000
7.5834  0.000000  0.000000  0.000000  -37.8827380038407  -0.013759983741334785  -7.6231530442732645  50.26358598905563  11.066263694895017  7.853756335477024  61.001742388541714  3.444022285919527  -44.95756264558627  18.349615516247322  120.000000
7.64085  0.000000  0.000000  0.000000  -37.88166966746471  0.009848249736525774  -7.125665410833439  50.33240390444088  10.743897401497208  7.5619736123031815  58.21432275136349  3.2578445057128897  -42.49324740969116  18.556369793121682  120.000000
7.6983  0.000000  0.000000  0.000000  -37.87629703343881  0.032061636366216666  -6.6889993844131705  50.39082947519642  10.455863276712506  7.310657904906769  54.890185598011485  3.0802243100879787  -39.482862279335265  18.760367427486994  120.000000
7.75575  0.000000  0.000000  0.000000  -37.87505340185168  0.05109229519021589  -6.3128014032759445  50.4375411628385  10.20553210008484  7.096391622872115  51.06187988749512  2.911420628855945  -35.96066061286561  18.96604990194112  120.000000
7.8132  0.000000  0.000000  0.000000  -37.884194708099834  0.06512187312722145  -5.995861203316203  50.47446912825041  9.997671445654797  6.913400035776231  46.763369410761115  2.754577546351358  -31.962704236208744  19.172597320861268  120.000000
7.87065  0.000000  0.000000  0.000000  -37.90725570818019  0.07007394695342183  -5.73667073005523  50.50598063011965  9.836949512470724  6.755030239820279  42.07610147824638  2.614353578904411  -27.570787774168785  19.37579287877624  120.000000
7.928100000000001  0.000000  0.000000  0.000000  -37.94536107902876  0.05716912264806269  -5.533259742043623  50.53613149423596  9.72710822722575  6.615175504115304  37.16159919111169  2.494677754546937  -22.943979571711754  19.572445618157694  120.000000
7.98555  0.000000  0.000000  0.000000  -37.99778141416712  0.013001434105211557  -5.382801895285084  50.565389285612774  9.67060647521341  6.48895910420672  32.23870859046883  2.3958986327372367  -18.294808536876168  19.764833575234025  120.000000
8.043  0.000000  0.000000  0.000000  -38.06018382593685  -0.07456695465970131  -5.282638781743889  50.59286604931797  9.669362015213984  6.369722180871421  27.557316830230903  2.315116286454234  -13.862757358399659  19.964073831815085  120.000000
8.10045  0.000000  0.000000  0.000000  -38.12353090154387  -0.21216989503648953  -5.231071540148863  50.61563485347594  9.725514472900224  6.24652075931959  23.321019013070362  2.2471636679841285  -9.83851347734742  20.18632715041837  120.000000
8.1579  0.000000  0.000000  0.000000  -38.18126408716652  -0.39762804067896446  -5.2257218895022906  50.616492828968205  9.841582965999878  6.1080140418634885  19.51369477796365  2.1865585275733306  -6.19421050638057  20.442037320423662  120.000000
8.21535  0.000000  0.000000  0.000000  -38.2328118049671  -0.6176458594581431  -5.263940530029739  50.55882773219226  10.019484243640582  5.9463046976455916  15.921147402232629  2.132218767475349  -2.7091706106839575  20.72291580315037  120.000000
8.2728  0.000000  0.000000  0.000000  -38.28052652275549  -0.8463335549233806  -5.349591118959055  50.40252508749123  10.258093595891198  5.752710197400465  12.51169140474302  2.0904925064426942  0.6462304473659032  20.995078122125324  120.000000
8.33025  0.000000  0.000000  0.000000  -38.33050017823498  -1.0475409316437279  -5.493464946580402  50.11170285825011  10.552820982070317  5.516943718236474  9.609819872501845  2.071604654636242  3.538067917110808  21.203309585338243  120.000000
8.3877  0.000000  0.000000  0.000000  -38.39151976576906  -1.1896363525169504  -5.705625659929473  49.65404995104042  10.895615876096494  5.2359405493117785  7.8427664250281985  2.0847914364757982  5.331091105078868  21.289263537755424  120.000000
8.44515  0.000000  0.000000  0.000000  -38.46427820859036  -1.2569733784335257  -5.9920936098444235  49.02093223411572  11.273715197354434  4.9179807660714925  8.338094370718851  2.137603324595234  4.905890702297901  21.2230717390668  120.000000
